<?xml version="1.0" encoding="UTF-8"?>
<!DOCTYPE svg PUBLIC "-//W3C//DTD SVG 1.1//EN" "http://www.w3.org/Graphics/SVG/1.1/DTD/svg11.dtd">
<svg xmlns="http://www.w3.org/2000/svg" version="1.1" width="512px" height="512px" style="shape-rendering:geometricPrecision; text-rendering:geometricPrecision; image-rendering:optimizeQuality; fill-rule:evenodd; clip-rule:evenodd" xmlns:xlink="http://www.w3.org/1999/xlink">
<g><path style="opacity:0.984" fill="#000000" d="M 34.5,-0.5 C 41.1667,-0.5 47.8333,-0.5 54.5,-0.5C 70.1007,3.7579 81.1007,13.4246 87.5,28.5C 106.491,29.333 125.491,29.833 144.5,30C 153.47,46.1159 162.803,61.9492 172.5,77.5C 184.364,72.2679 196.531,67.9346 209,64.5C 209.5,42.8359 209.667,21.1692 209.5,-0.5C 219.833,-0.5 230.167,-0.5 240.5,-0.5C 240.5,19.5 240.5,39.5 240.5,59.5C 250.5,59.5 260.5,59.5 270.5,59.5C 270.5,39.5 270.5,19.5 270.5,-0.5C 280.833,-0.5 291.167,-0.5 301.5,-0.5C 301.333,21.1692 301.5,42.8359 302,64.5C 314.469,67.9346 326.636,72.2679 338.5,77.5C 348.197,61.9492 357.53,46.1159 366.5,30C 385.509,29.833 404.509,29.333 423.5,28.5C 429.899,13.4246 440.899,3.7579 456.5,-0.5C 463.167,-0.5 469.833,-0.5 476.5,-0.5C 494.5,4.83333 506.167,16.5 511.5,34.5C 511.5,41.1667 511.5,47.8333 511.5,54.5C 501.409,83.0522 481.409,94.2189 451.5,88C 438.56,82.7267 429.227,73.7267 423.5,61C 410.487,60.1673 397.487,60.334 384.5,61.5C 378.5,71.8333 372.5,82.1667 366.5,92.5C 387.743,108.243 405.743,127.076 420.5,149C 450.832,149.5 481.165,149.667 511.5,149.5C 511.5,159.833 511.5,170.167 511.5,180.5C 486.833,180.5 462.167,180.5 437.5,180.5C 444.524,199.598 449.191,219.264 451.5,239.5C 471.489,240.5 491.489,240.833 511.5,240.5C 511.5,250.5 511.5,260.5 511.5,270.5C 491.489,270.167 471.489,270.5 451.5,271.5C 449.191,291.736 444.524,311.402 437.5,330.5C 462.167,330.5 486.833,330.5 511.5,330.5C 511.5,340.833 511.5,351.167 511.5,361.5C 481.165,361.333 450.832,361.5 420.5,362C 405.743,383.924 387.743,402.757 366.5,418.5C 372.5,428.833 378.5,439.167 384.5,449.5C 397.487,450.666 410.487,450.833 423.5,450C 436.182,424.656 456.182,415.989 483.5,424C 498.108,430.431 507.441,441.264 511.5,456.5C 511.5,463.167 511.5,469.833 511.5,476.5C 506.167,494.5 494.5,506.167 476.5,511.5C 469.833,511.5 463.167,511.5 456.5,511.5C 440.899,507.242 429.899,497.575 423.5,482.5C 404.509,481.667 385.509,481.167 366.5,481C 357.53,464.884 348.197,449.051 338.5,433.5C 326.636,438.732 314.469,443.065 302,446.5C 301.5,468.164 301.333,489.831 301.5,511.5C 291.167,511.5 280.833,511.5 270.5,511.5C 270.5,491.5 270.5,471.5 270.5,451.5C 260.5,451.5 250.5,451.5 240.5,451.5C 240.5,471.5 240.5,491.5 240.5,511.5C 230.167,511.5 219.833,511.5 209.5,511.5C 209.667,489.831 209.5,468.164 209,446.5C 196.531,443.065 184.364,438.732 172.5,433.5C 162.803,449.051 153.47,464.884 144.5,481C 125.491,481.167 106.491,481.667 87.5,482.5C 81.1007,497.575 70.1007,507.242 54.5,511.5C 47.8333,511.5 41.1667,511.5 34.5,511.5C 16.4913,506.158 4.82461,494.491 -0.5,476.5C -0.5,469.833 -0.5,463.167 -0.5,456.5C 9.59114,427.948 29.5911,416.781 59.5,423C 72.4398,428.273 81.7731,437.273 87.5,450C 100.513,450.833 113.513,450.666 126.5,449.5C 132.5,439.167 138.5,428.833 144.5,418.5C 123.257,402.757 105.257,383.924 90.5,362C 60.1685,361.5 29.8352,361.333 -0.5,361.5C -0.5,351.167 -0.5,340.833 -0.5,330.5C 24.1667,330.5 48.8333,330.5 73.5,330.5C 66.4757,311.402 61.809,291.736 59.5,271.5C 39.5111,270.5 19.5111,270.167 -0.5,270.5C -0.5,260.5 -0.5,250.5 -0.5,240.5C 19.5111,240.833 39.5111,240.5 59.5,239.5C 61.809,219.264 66.4757,199.598 73.5,180.5C 48.8333,180.5 24.1667,180.5 -0.5,180.5C -0.5,170.167 -0.5,159.833 -0.5,149.5C 29.8352,149.667 60.1685,149.5 90.5,149C 105.257,127.076 123.257,108.243 144.5,92.5C 138.5,82.1667 132.5,71.8333 126.5,61.5C 113.513,60.334 100.513,60.1673 87.5,61C 74.8175,86.3443 54.8175,95.011 27.5,87C 12.8925,80.5693 3.55916,69.736 -0.5,54.5C -0.5,47.8333 -0.5,41.1667 -0.5,34.5C 4.83333,16.5 16.5,4.83333 34.5,-0.5 Z M 166.5,195.5 C 187.331,195.158 202.498,204.158 212,222.5C 213.202,225.774 214.202,229.107 215,232.5C 215.5,260.165 215.667,287.831 215.5,315.5C 205.833,315.5 196.167,315.5 186.5,315.5C 186.5,305.5 186.5,295.5 186.5,285.5C 176.167,285.5 165.833,285.5 155.5,285.5C 155.5,295.5 155.5,305.5 155.5,315.5C 145.833,315.5 136.167,315.5 126.5,315.5C 126.333,288.498 126.5,261.498 127,234.5C 131.462,212.537 144.629,199.537 166.5,195.5 Z M 240.5,195.5 C 257.17,195.333 273.837,195.5 290.5,196C 319.715,202.597 332.548,220.764 329,250.5C 322.615,271.549 308.448,283.049 286.5,285C 281.177,285.499 275.844,285.666 270.5,285.5C 270.5,295.5 270.5,305.5 270.5,315.5C 260.5,315.5 250.5,315.5 240.5,315.5C 240.5,275.5 240.5,235.5 240.5,195.5 Z M 350.5,195.5 C 360.167,195.5 369.833,195.5 379.5,195.5C 379.5,235.5 379.5,275.5 379.5,315.5C 369.833,315.5 360.167,315.5 350.5,315.5C 350.5,275.5 350.5,235.5 350.5,195.5 Z"/></g>
<g><path style="opacity:0.921" fill="#000000" d="M 168.5,224.5 C 177.009,224 182.843,227.667 186,235.5C 186.5,242.492 186.666,249.492 186.5,256.5C 176.167,256.5 165.833,256.5 155.5,256.5C 155.104,248.747 155.604,241.08 157,233.5C 159.593,228.721 163.427,225.721 168.5,224.5 Z"/></g>
<g><path style="opacity:0.935" fill="#000000" d="M 270.5,224.5 C 276.509,224.334 282.509,224.501 288.5,225C 299.307,228.466 303.14,235.633 300,246.5C 297.538,252.487 293.038,255.654 286.5,256C 281.177,256.499 275.844,256.666 270.5,256.5C 270.5,245.833 270.5,235.167 270.5,224.5 Z"/></g>
</svg>
