<?xml version="1.0" encoding="UTF-8"?>
<!DOCTYPE svg PUBLIC "-//W3C//DTD SVG 1.1//EN" "http://www.w3.org/Graphics/SVG/1.1/DTD/svg11.dtd">
<svg xmlns="http://www.w3.org/2000/svg" version="1.1" width="512px" height="512px" style="shape-rendering:geometricPrecision; text-rendering:geometricPrecision; image-rendering:optimizeQuality; fill-rule:evenodd; clip-rule:evenodd" xmlns:xlink="http://www.w3.org/1999/xlink">
<g><path style="opacity:0.967" fill="#000000" d="M 244.5,-0.5 C 251.833,-0.5 259.167,-0.5 266.5,-0.5C 284.276,4.40594 299.11,14.0726 311,28.5C 326.655,49.139 338.655,71.8056 347,96.5C 374.373,90.5563 401.873,90.0563 429.5,95C 473.434,107.356 490.268,135.856 480,180.5C 476.377,192.747 471.377,204.414 465,215.5C 456.748,228.251 447.915,240.585 438.5,252.5C 459.874,274.902 475.374,300.902 485,330.5C 493.588,378.603 473.755,407.103 425.5,416C 416.685,417.02 407.852,417.853 399,418.5C 381.661,417.684 364.494,415.851 347.5,413C 339.119,438.267 326.952,461.434 311,482.5C 299.11,496.927 284.276,506.594 266.5,511.5C 259.167,511.5 251.833,511.5 244.5,511.5C 226.724,506.594 211.89,496.927 200,482.5C 184.048,461.434 171.881,438.267 163.5,413C 146.506,415.851 129.339,417.684 112,418.5C 87.9055,418.937 65.7388,412.77 45.5,400C 24.9468,380.973 18.4468,357.807 26,330.5C 35.6259,300.902 51.1259,274.902 72.5,252.5C 58.1745,235.868 46.3412,217.535 37,197.5C 27.883,178.362 25.7164,158.529 30.5,138C 39.4857,114.361 56.4857,100.028 81.5,95C 109.127,90.0563 136.627,90.5563 164,96.5C 172.345,71.8056 184.345,49.139 200,28.5C 211.89,14.0726 226.724,4.40594 244.5,-0.5 Z M 248.5,30.5 C 260.027,28.9539 270.027,32.1206 278.5,40C 296.544,58.1029 308.544,79.4363 314.5,104C 294.495,109.946 274.828,116.779 255.5,124.5C 235.915,116.805 216.082,109.805 196,103.5C 202.599,79.1361 214.765,57.9694 232.5,40C 237.434,36.038 242.767,32.8713 248.5,30.5 Z M 100.5,122.5 C 118.931,121.947 137.264,122.947 155.5,125.5C 151.02,146.38 147.187,167.38 144,188.5C 126.927,201.214 110.593,214.881 95,229.5C 79.8377,212.851 68.5043,193.851 61,172.5C 54.3491,150.64 61.5158,135.473 82.5,127C 88.5814,125.29 94.5814,123.79 100.5,122.5 Z M 377.5,122.5 C 388.505,122.333 399.505,122.5 410.5,123C 447.733,126.978 459.9,146.478 447,181.5C 439.171,199.168 428.838,215.168 416,229.5C 400.407,214.881 384.073,201.214 367,188.5C 363.813,167.38 359.98,146.38 355.5,125.5C 363.024,124.909 370.358,123.909 377.5,122.5 Z M 185.5,133.5 C 196.088,136.029 206.421,139.363 216.5,143.5C 204.5,150.5 192.5,157.5 180.5,164.5C 180.167,164 179.833,163.5 179.5,163C 181.582,153.173 183.582,143.34 185.5,133.5 Z M 322.5,133.5 C 323.5,133.5 324.5,133.5 325.5,133.5C 327.418,143.34 329.418,153.173 331.5,163C 331.167,163.5 330.833,164 330.5,164.5C 318.5,157.5 306.5,150.5 294.5,143.5C 303.857,139.939 313.19,136.605 322.5,133.5 Z M 254.5,159.5 C 283.784,172.22 311.284,187.886 337,206.5C 340.392,237.877 340.225,269.21 336.5,300.5C 310.936,318.455 283.936,334.122 255.5,347.5C 227.064,334.122 200.064,318.455 174.5,300.5C 170.744,269.21 170.577,237.876 174,206.5C 199.466,188.544 226.299,172.877 254.5,159.5 Z M 140.5,230.5 C 140.677,245.048 140.677,259.714 140.5,274.5C 132.174,267.507 124.174,260.174 116.5,252.5C 124.22,244.776 132.22,237.443 140.5,230.5 Z M 369.5,230.5 C 378.432,237.095 386.766,244.429 394.5,252.5C 386.826,260.174 378.826,267.507 370.5,274.5C 370.67,259.881 370.336,245.215 369.5,230.5 Z M 93.5,275.5 C 109.857,290.019 126.69,304.019 144,317.5C 146.275,339.32 150.108,360.82 155.5,382C 130.53,388.286 105.53,388.62 80.5,383C 58.1485,376.139 49.9819,361.306 56,338.5C 59.6465,326.874 64.6465,315.874 71,305.5C 78.2657,295.291 85.7657,285.291 93.5,275.5 Z M 415.5,275.5 C 430.496,290.047 442.33,307.047 451,326.5C 465.149,361.33 453.649,381.163 416.5,386C 395.971,387.939 375.638,386.605 355.5,382C 360.892,360.82 364.725,339.32 367,317.5C 384.245,304.756 400.412,290.756 415.5,275.5 Z M 178.5,341.5 C 191.445,348.977 204.445,356.477 217.5,364C 207.121,368.538 196.455,371.871 185.5,374C 182.468,363.34 180.134,352.507 178.5,341.5 Z M 330.5,341.5 C 331.497,341.47 332.164,341.97 332.5,343C 330.672,353.479 328.338,363.813 325.5,374C 314.545,371.871 303.879,368.538 293.5,364C 306.23,356.977 318.563,349.477 330.5,341.5 Z M 253.5,382.5 C 273.583,390.2 293.916,397.366 314.5,404C 315.428,404.388 316.095,405.055 316.5,406C 309.667,426.504 299.833,445.337 287,462.5C 266,486.5 245,486.5 224,462.5C 211.167,445.337 201.333,426.504 194.5,406C 205.905,401.305 217.571,396.972 229.5,393C 237.725,389.768 245.725,386.268 253.5,382.5 Z"/></g>
<g><path style="opacity:0.972" fill="#000000" d="M 249.5,208.5 C 278.249,207.94 295.749,221.606 302,249.5C 303.037,278.274 289.537,295.774 261.5,302C 232.726,303.037 215.226,289.537 209,261.5C 208.074,232.645 221.574,214.978 249.5,208.5 Z"/></g>
</svg>
