<svg xmlns="http://www.w3.org/2000/svg" xmlns:xlink="http://www.w3.org/1999/xlink" xmlns:serif="http://www.serif.com/" viewBox="0 0 32 40" version="1.1" xml:space="preserve" style="" x="0px" y="0px" fill-rule="evenodd" clip-rule="evenodd" stroke-linejoin="round" stroke-miterlimit="2"><g transform="matrix(1,0,0,1,-94,-10)"><path d="M121,28C121.53,28 122.039,28.211 122.414,28.586C122.789,28.961 123,29.47 123,30L123,38C123,38.53 122.789,39.039 122.414,39.414C122.039,39.789 121.53,40 121,40L99,40C97.895,40 97,39.105 97,38L97,26.83L97,26.828C97,25.522 97.835,24.411 99,24L99,26C99,26.53 99.211,27.039 99.586,27.414C99.961,27.789 100.47,28 101,28L121,28ZM106.207,31.558C106.207,31.558 105.428,30.001 103.748,30.001L103.426,30.001C102.598,30.001 101.804,30.33 101.219,30.915C100.633,31.501 100.305,32.294 100.305,33.122L100.305,34.879C100.305,36.603 101.702,38 103.426,38L103.748,38C105.361,38 106.195,36.466 106.195,36.466C106.453,35.978 106.265,35.373 105.777,35.115C105.288,34.858 104.683,35.046 104.426,35.534C104.426,35.534 104.207,36 103.748,36L103.426,36C102.807,36 102.305,35.498 102.305,34.879L102.305,33.122C102.305,32.825 102.423,32.54 102.633,32.33C102.843,32.119 103.128,32.001 103.426,32.001L103.748,32.001C104.209,32.001 104.414,32.442 104.414,32.442C104.658,32.937 105.258,33.141 105.753,32.897C106.248,32.653 106.452,32.053 106.207,31.558ZM109.19,32.5C109.19,32.224 109.414,32 109.69,32L111.69,32C112.242,32 112.69,31.552 112.69,31C112.69,30.448 112.242,30 111.69,30L109.69,30C108.31,30 107.19,31.119 107.19,32.5C107.19,33.163 107.454,33.799 107.923,34.268C108.392,34.737 109.027,35 109.69,35L110.69,35C110.823,35 110.95,35.053 111.044,35.146C111.138,35.24 111.19,35.367 111.19,35.5C111.19,35.633 111.138,35.76 111.044,35.854C110.95,35.947 110.823,36 110.69,36L108.19,36C107.639,36 107.19,36.448 107.19,37C107.19,37.552 107.639,38 108.19,38L110.69,38C111.353,38 111.989,37.737 112.458,37.268C112.927,36.799 113.19,36.163 113.19,35.5C113.19,34.837 112.927,34.201 112.458,33.732C111.989,33.263 111.353,33 110.69,33L109.69,33C109.558,33 109.431,32.947 109.337,32.854C109.243,32.76 109.19,32.633 109.19,32.5ZM115.69,32.5C115.69,32.224 115.914,32 116.19,32L118.19,32C118.742,32 119.19,31.552 119.19,31C119.19,30.448 118.742,30 118.19,30L116.19,30C114.81,30 113.69,31.119 113.69,32.5C113.69,33.163 113.954,33.799 114.423,34.268C114.892,34.737 115.527,35 116.19,35L117.19,35C117.323,35 117.45,35.053 117.544,35.146C117.638,35.24 117.69,35.367 117.69,35.5C117.69,35.633 117.638,35.76 117.544,35.854C117.45,35.947 117.323,36 117.19,36L114.69,36C114.139,36 113.69,36.448 113.69,37C113.69,37.552 114.139,38 114.69,38L117.19,38C117.853,38 118.489,37.737 118.958,37.268C119.427,36.799 119.69,36.163 119.69,35.5C119.69,34.837 119.427,34.201 118.958,33.732C118.489,33.263 117.853,33 117.19,33L116.19,33C116.058,33 115.931,32.947 115.837,32.854C115.743,32.76 115.69,32.633 115.69,32.5ZM120,26L101,26L101,14C101,12.895 101.895,12 103,12L114.278,12C114.553,12 114.816,12.113 115.005,12.313L119.727,17.313C119.902,17.499 120,17.745 120,18L120,26ZM106.433,20.988L106.433,21.714C106.433,22.633 106.98,23.463 107.824,23.827C108.331,24.045 108.92,23.81 109.138,23.303C109.356,22.796 109.122,22.208 108.615,21.989C108.505,21.942 108.433,21.834 108.433,21.714L108.433,18.12C108.433,18.079 108.458,18.042 108.497,18.027C109.01,17.824 109.262,17.243 109.059,16.729C108.856,16.216 108.275,15.964 107.761,16.167C106.96,16.484 106.433,17.258 106.433,18.12L106.433,18.988C105.881,18.988 105.433,19.436 105.433,19.988C105.433,20.54 105.881,20.988 106.433,20.988ZM113.883,20.988C114.435,20.988 114.883,20.54 114.883,19.988C114.883,19.436 114.435,18.988 113.883,18.988L113.883,18.12C113.883,17.258 113.356,16.484 112.555,16.167C112.041,15.964 111.46,16.216 111.257,16.729C111.054,17.243 111.306,17.824 111.819,18.027C111.858,18.042 111.883,18.079 111.883,18.12L111.883,21.714C111.883,21.834 111.811,21.942 111.701,21.989C111.194,22.208 110.96,22.796 111.178,23.303C111.396,23.81 111.985,24.045 112.492,23.827C113.336,23.463 113.883,22.633 113.883,21.714L113.883,20.988Z"/></g><text x="0" y="47" fill="#000000" font-size="5px" font-weight="bold" font-family="'Helvetica Neue', Helvetica, Arial-Unicode, Arial, Sans-serif">Created by mpanicon</text><text x="0" y="52" fill="#000000" font-size="5px" font-weight="bold" font-family="'Helvetica Neue', Helvetica, Arial-Unicode, Arial, Sans-serif">from the Noun Project</text></svg>