<svg width="11" height="7" viewBox="0 0 11 7" fill="none" xmlns="http://www.w3.org/2000/svg">
<path d="M10.9863 3.44897C10.9863 3.43615 10.9863 3.42333 10.9863 3.41051C10.9863 3.39769 10.9863 3.38487 10.9725 3.37205C10.9725 3.35923 10.9588 3.34641 10.9588 3.33359C10.9588 3.32077 10.9451 3.30795 10.9451 3.29513C10.9451 3.28231 10.9313 3.26949 10.9313 3.26949C10.9176 3.25668 10.9176 3.24386 10.9039 3.23104C10.9039 3.23104 10.9039 3.23104 10.9039 3.21822L10.8901 3.2054C10.8764 3.19258 10.8764 3.19258 10.8764 3.19258L7.00375 0.090233C6.88015 0.000495761 6.72909 -0.0251435 6.57803 0.026135C6.4407 0.090233 6.34457 0.218429 6.34457 0.359445V1.97471H0.398252C0.178527 1.97471 0 2.14137 0 2.34648V4.64119C0 4.84631 0.178527 5.01296 0.398252 5.01296H6.37204V6.62823C6.37204 6.76925 6.46816 6.89744 6.60549 6.96154C6.66042 6.98718 6.71536 7 6.77029 7C6.86642 7 6.94881 6.97436 7.03121 6.91026L10.8764 3.78228C10.8901 3.78228 10.8901 3.76946 10.9039 3.75664L10.9176 3.74382V3.731C10.9313 3.71818 10.9313 3.70536 10.9451 3.69254C10.9451 3.67972 10.9588 3.67972 10.9588 3.6669C10.9588 3.65408 10.9725 3.64126 10.9725 3.62844C10.9725 3.61562 10.9863 3.6028 10.9863 3.58998C10.9863 3.57717 10.9863 3.56435 11 3.55153C11 3.53871 11 3.52589 11 3.51307C11 3.50025 11 3.48743 11 3.47461C10.9863 3.47461 10.9863 3.46179 10.9863 3.44897Z" fill="black"/>
</svg>
