<svg width="110" height="133" viewBox="0 0 110 133" fill="none" xmlns="http://www.w3.org/2000/svg">
<path d="M56.6825 5.34446C56.1375 3.73475 55.5775 2.12798 54.9995 0.525146C54.4225 2.12896 53.8625 3.73573 53.3175 5.34446C51.5045 5.36216 49.6925 5.40838 47.8795 5.4841C49.3875 6.41335 50.8705 7.36325 52.3275 8.33183C51.8035 9.9445 51.2955 11.5591 50.8035 13.1777C52.1755 12.1501 53.5735 11.1402 54.9985 10.149C56.4235 11.1402 57.8225 12.1501 59.1945 13.1777C58.7025 11.5591 58.1945 9.9445 57.6715 8.33183C59.1275 7.36325 60.6105 6.41335 62.1195 5.4841C60.3085 5.40936 58.4955 5.36216 56.6825 5.34446Z" fill="#E23428"/>
<path d="M39.1075 6.07313C38.3955 4.52929 37.6675 2.98841 36.9235 1.45343C36.5185 3.1074 36.1295 4.76235 35.7575 6.41828C33.9525 6.62183 32.1515 6.8539 30.3525 7.11546C31.9555 7.88541 33.5335 8.677 35.0875 9.4912C34.7365 11.1491 34.4015 12.807 34.0835 14.4669C35.3415 13.3036 36.6275 12.156 37.9415 11.0242C39.4655 11.864 40.9655 12.7254 42.4395 13.6064C41.7785 12.0488 41.1015 10.4942 40.4075 8.94446C41.7565 7.83133 43.1315 6.73491 44.5345 5.6562C42.7255 5.76633 40.9155 5.90596 39.1075 6.07313Z" fill="#E23428"/>
<path d="M21.6665 8.60619C20.7915 7.14397 19.9015 5.68668 18.9965 4.23724C18.7675 5.92464 18.5555 7.61106 18.3585 9.29649C16.5775 9.68589 14.8015 10.1038 13.0305 10.5512C14.7145 11.1491 16.3755 11.7735 18.0145 12.4205C17.8385 14.106 17.6795 15.7914 17.5355 17.4749C18.6695 16.1877 19.8325 14.9133 21.0245 13.6507C22.6345 14.3272 24.2225 15.0283 25.7865 15.7531C24.9635 14.2712 24.1245 12.7952 23.2695 11.3261C24.4965 10.0802 25.7525 8.84809 27.0375 7.63073C25.2435 7.92671 23.4525 8.25121 21.6665 8.60619Z" fill="#E23428"/>
<path d="M74.2406 6.41828C73.8686 4.76235 73.4796 3.1074 73.0756 1.45343C72.3316 2.9894 71.6026 4.52929 70.8896 6.07313C69.0816 5.90498 67.2716 5.76535 65.4606 5.65521C66.8636 6.73393 68.2396 7.83035 69.5886 8.94348C68.8966 10.4932 68.2196 12.0479 67.5596 13.6055C69.0336 12.7244 70.5326 11.864 72.0566 11.0232C73.3696 12.155 74.6566 13.3036 75.9146 14.4659C75.5966 12.806 75.2616 11.1481 74.9096 9.49021C76.4636 8.67601 78.0426 7.88443 79.6446 7.11448C77.8476 6.8539 76.0456 6.62183 74.2406 6.41828Z" fill="#E23428"/>
<path d="M96.9695 10.5502C95.1985 10.1028 93.4225 9.68391 91.6415 9.29549C91.4465 7.60908 91.2345 5.92266 91.0055 4.23526C90.1005 5.68666 89.2095 7.14298 88.3345 8.60519C86.5485 8.25218 84.7585 7.92669 82.9635 7.62973C84.2475 8.84709 85.5035 10.0792 86.7315 11.3251C85.8765 12.7952 85.0375 14.2702 84.2125 15.7521C85.7765 15.0283 87.3655 14.3272 88.9765 13.6497C90.1675 14.9113 91.3305 16.1847 92.4645 17.4719C92.3205 15.7884 92.1615 14.105 91.9855 12.4205C93.6245 11.7725 95.2855 11.1491 96.9695 10.5502Z" fill="#E23428"/>
<path d="M61.5901 75.4604H48.4451C48.4451 75.4604 48.4294 97.0321 48.4451 97.9835H61.5901C61.5861 94.9928 61.5901 78.775 61.5901 75.4604Z" fill="#135846"/>
<path d="M96.48 93.4808H93.3003V52.2958C93.3003 50.9896 92.2105 49.9239 90.8745 49.9239H79.4015C79.4015 49.9239 79.4093 97.484 79.4015 97.9876H96.4795C99.5068 97.9341 99.5107 93.5455 96.4795 93.4844L96.48 93.4808Z" fill="#135846"/>
<path d="M16.73 52.2958V93.4808H13.5503C12.2769 93.4808 11.2456 94.5006 11.2456 95.7343C11.2456 96.9794 12.2729 97.9878 13.5503 97.9878H30.6283V49.9241H19.1553C17.8194 49.9241 16.73 50.9895 16.73 52.2958Z" fill="#135846"/>
<path d="M72.3671 20.342H37.6441C36.3082 20.342 35.2183 21.4076 35.2183 22.7139V29.1993C35.2183 30.5056 36.3081 31.5712 37.6441 31.5712H41.2535V36.4525H37.5387C36.2653 36.4525 35.234 37.4723 35.234 38.706V97.9877C36.0972 97.9495 42.7887 98.0144 43.8356 97.9877C43.8473 97.0863 43.8356 74.8339 43.8356 74.8339C43.8356 72.7026 45.6168 70.961 47.7965 70.961H62.2305C64.4102 70.961 66.1914 72.7026 66.1914 74.8339C66.1875 78.088 66.1914 95.0426 66.1914 97.9877H74.793L74.7969 38.706C74.7969 37.4761 73.7696 36.4525 72.4922 36.4525H68.7617V31.5712H72.3711C73.707 31.5712 74.7969 30.5057 74.7969 29.1993V22.7139C74.7969 21.4077 73.7071 20.342 72.3711 20.342H72.3671ZM45.8631 31.5708H64.1521V36.4521H45.8631V31.5708ZM49.5936 64.785H46.7381C43.7108 64.7391 43.7108 60.3277 46.7381 60.2818H49.5936C52.6209 60.3277 52.6209 64.7391 49.5936 64.785ZM49.5936 55.9583H46.7381C43.7108 55.9124 43.7108 51.501 46.7381 51.4551H49.5936C52.6209 51.501 52.6209 55.9124 49.5936 55.9583ZM49.5936 47.1278H46.7381C43.7108 47.0819 43.7108 42.6705 46.7381 42.6246H49.5936C52.6209 42.6705 52.6209 47.0819 49.5936 47.1278ZM63.2926 64.7855H60.4371C57.4098 64.7396 57.4098 60.3282 60.4371 60.2823H63.2926C66.3199 60.3281 66.3199 64.7396 63.2926 64.7855ZM63.2926 55.9588H60.4371C57.4098 55.9129 57.4098 51.5015 60.4371 51.4556H63.2926C66.3199 51.5014 66.3199 55.9129 63.2926 55.9588ZM63.2926 47.1283H60.4371C57.4098 47.0824 57.4098 42.671 60.4371 42.6251H63.2926C66.3199 42.6709 66.3199 47.0824 63.2926 47.1283Z" fill="#135846"/>
</svg>
