<svg width="30" height="30" viewBox="0 0 16 16" fill="none" xmlns="http://www.w3.org/2000/svg">
<path fill-rule="evenodd" clip-rule="evenodd" d="M12.5619 0C14.4605 0 16 1.60686 16 3.58852V4.80436H1.95845C0.876968 4.80436 0.000542818 3.88952 0.000542818 2.7608V2.04442C0.000542818 0.915619 0.87704 9.45629e-05 1.95845 9.45629e-05L12.5619 0ZM16 8.41431C16 9.51138 15.1461 10.4025 14.0951 10.4025H1.90489C0.853806 10.4025 0 9.5113 0 8.41431C0 7.31732 0.853879 6.42609 1.90489 6.42609H14.0951C15.1462 6.42609 16 7.31732 16 8.41431ZM16 13.018V15.0062C16 15.5544 15.5731 16 15.0479 16H0.952588C0.426704 16 0.000470425 15.5544 0.000470425 15.0062V13.018C0.000470425 12.4691 0.42741 12.0242 0.952588 12.0242H15.0479C15.5738 12.0242 16 12.4698 16 13.018Z" fill="white"/>
</svg>
